<svg xmlns="http://www.w3.org/2000/svg" width="20" height="20" viewBox="0 0 20 20"><path fill="#000" fill-rule="nonzero" d="M7.72727273 0C3.45525591 0 0 3.45525591 0 7.72727273 0 11.99929 3.45525591 15.4545455 7.72727273 15.4545455c1.52521318 0 2.93678997-.4474432 4.13352277-1.2073864l5.5823863 5.5823864L19.375 17.8977273l-5.5113636-5.4971591c.9907672-1.2997159 1.5909091-2.91015638 1.5909091-4.67329547C15.4545455 3.45525591 11.99929 0 7.72727273 0zm0 1.81818182c3.27237227 0 5.90909087 2.63671863 5.90909087 5.90909091 0 3.27237227-2.6367186 5.90909087-5.90909087 5.90909087-3.27237228 0-5.90909091-2.6367186-5.90909091-5.90909087 0-3.27237228 2.63671863-5.90909091 5.90909091-5.90909091z"></path></svg>