<?xml version="1.0" standalone="no"?>
<!DOCTYPE svg PUBLIC "-//W3C//DTD SVG 20010904//EN"
 "http://www.w3.org/TR/2001/REC-SVG-20010904/DTD/svg10.dtd">
<svg version="1.0" xmlns="http://www.w3.org/2000/svg"
 width="300.000000pt" height="300.000000pt" viewBox="0 0 300.000000 300.000000"
 preserveAspectRatio="xMidYMid meet">

<g transform="translate(0.000000,300.000000) scale(0.100000,-0.100000)"
fill="#000000" stroke="none">
<path d="M1345 2465 c-234 -37 -409 -120 -556 -265 -131 -129 -188 -261 -176
-410 5 -68 38 -175 61 -198 14 -14 -22 -29 991 423 127 56 277 124 335 150 58
26 125 56 149 67 l44 19 -58 45 c-189 146 -507 214 -790 169z"/>
<path d="M2095 2120 c-257 -115 -1278 -572 -1324 -592 l-44 -19 34 -35 c85
-90 219 -164 371 -208 505 -145 1095 90 1212 483 20 70 21 192 0 262 -16 56
-65 149 -87 167 -8 7 -57 -11 -162 -58z"/>
<path d="M2392 1728 c-71 -230 -312 -432 -611 -512 -487 -130 -988 30 -1167
374 -36 69 -38 60 -31 -120 3 -101 10 -149 25 -192 89 -247 333 -415 682 -469
96 -15 340 -6 440 16 281 62 530 234 628 435 53 107 64 177 60 383 l-3 159
-23 -74z"/>
<path d="M490 413 c-45 -17 -50 -32 -50 -148 0 -96 3 -116 19 -136 l19 -24
289 3 c158 2 295 5 304 8 28 8 39 52 39 152 -1 156 7 152 -337 151 -147 0
-275 -3 -283 -6z m280 -120 c8 -24 17 -43 20 -43 3 0 11 20 18 45 9 34 17 45
32 45 26 0 25 -11 -7 -93 -36 -91 -56 -90 -91 6 -20 54 -27 65 -38 56 -8 -6
-20 -9 -27 -6 -8 3 -20 1 -28 -3 -10 -7 -7 -11 12 -18 82 -32 50 -120 -35 -98
-19 5 -26 12 -24 24 4 16 16 19 47 11 28 -8 19 17 -12 31 -38 18 -46 44 -22
71 14 15 30 18 79 16 l61 -2 15 -42z m219 38 c25 -16 6 -36 -35 -36 -38 0 -39
-1 -39 -35 0 -31 3 -35 28 -38 15 -2 27 1 27 7 0 6 -7 11 -15 11 -8 0 -15 9
-15 21 0 17 5 20 33 17 29 -3 32 -6 35 -42 4 -45 -7 -56 -59 -56 -40 0 -75 27
-85 64 -6 26 17 81 38 89 21 9 72 7 87 -2z m-410 -115 c9 -10 8 -16 -4 -26
-19 -16 -41 1 -32 24 8 20 21 20 36 2z"/>
<path d="M1210 407 c-41 -21 -51 -53 -48 -159 5 -150 -17 -141 338 -142 l292
-1 24 28 c22 26 24 37 24 128 0 98 -1 101 -29 130 l-29 29 -274 0 c-199 0
-280 -4 -298 -13z m243 -95 c12 -12 20 -34 20 -52 0 -45 -31 -72 -92 -78 l-51
-5 0 75 c0 41 3 78 8 82 13 14 94 -1 115 -22z m81 7 l14 -21 14 21 c13 21 48
30 48 12 0 -5 -8 -23 -17 -39 -16 -28 -16 -30 5 -64 27 -43 27 -48 3 -48 -11
0 -28 12 -38 26 l-19 25 -14 -25 c-8 -17 -22 -26 -37 -26 l-24 0 25 43 25 43
-19 29 c-11 17 -20 33 -20 38 0 16 40 6 54 -14z m204 -1 c3 -14 -3 -18 -27
-18 -17 0 -31 -4 -31 -10 0 -5 11 -10 25 -10 18 0 25 -5 25 -20 0 -15 -7 -20
-24 -20 -19 0 -25 -6 -28 -27 -2 -20 -9 -28 -23 -28 -18 0 -20 8 -23 64 -4 88
-1 93 55 89 36 -2 49 -7 51 -20z m-428 -114 c0 -19 -28 -30 -42 -16 -8 8 -8
15 1 26 14 17 41 10 41 -10z"/>
<path d="M1370 260 c0 -37 2 -41 21 -38 30 4 47 33 33 56 -6 9 -21 18 -33 20
-19 3 -21 -1 -21 -38z"/>
<path d="M1931 406 c-34 -19 -39 -37 -40 -143 -1 -104 11 -140 48 -150 14 -4
151 -8 304 -8 l279 0 19 24 c16 20 19 40 19 136 0 161 24 149 -324 152 -224 2
-286 0 -305 -11z m207 -82 c43 -30 19 -84 -37 -84 -17 0 -21 -6 -21 -30 0 -23
-4 -30 -20 -30 -18 0 -20 7 -20 80 l0 80 38 0 c21 0 48 -7 60 -16z m112 -31
l30 -48 0 48 c0 41 3 48 18 45 14 -3 17 -15 17 -78 0 -69 -2 -75 -22 -78 -16
-2 -27 7 -45 39 l-23 42 -5 -39 c-3 -27 -11 -40 -22 -42 -16 -3 -18 6 -18 77
0 74 2 81 20 81 13 0 30 -17 50 -47z m219 33 c15 -18 -4 -31 -40 -28 -33 4
-53 -20 -45 -53 5 -18 13 -25 31 -25 29 0 32 8 8 25 -22 16 -8 35 28 35 28 0
29 -2 29 -44 0 -48 -9 -56 -63 -56 -68 0 -103 86 -55 137 25 27 88 32 107 9z
m-451 -119 c4 -22 -27 -35 -38 -16 -10 15 7 42 24 36 6 -2 12 -11 14 -20z"/>
<path d="M2080 284 c0 -9 7 -14 17 -12 25 5 28 28 4 28 -12 0 -21 -6 -21 -16z"/>
</g>
</svg>
