<?xml version="1.0" standalone="no"?>
<!DOCTYPE svg PUBLIC "-//W3C//DTD SVG 20010904//EN"
 "http://www.w3.org/TR/2001/REC-SVG-20010904/DTD/svg10.dtd">
<svg version="1.0" xmlns="http://www.w3.org/2000/svg"
 width="1600.000000pt" height="720.000000pt" viewBox="0 0 1600.000000 359.000000"
 preserveAspectRatio="xMidYMid meet">

<g transform="translate(0.000000,359.000000) scale(0.100000,-0.100000)"
fill="#000000" stroke="none">
<path d="M4855 3509 c-187 -21 -341 -102 -497 -259 -85 -86 -182 -221 -220
-307 -14 -33 -16 -47 -7 -70 12 -34 62 -87 107 -115 68 -42 19 -28 -95 27
-310 151 -555 253 -710 297 -180 51 -428 11 -623 -100 -144 -82 -286 -227
-340 -347 -92 -201 -85 -532 14 -739 37 -77 97 -153 140 -175 14 -8 26 -18 26
-21 0 -4 -100 -10 -222 -13 -198 -5 -367 -22 -422 -43 -25 -9 -19 -29 17 -61
17 -15 214 -165 437 -332 657 -494 790 -600 790 -634 0 -12 -95 0 -124 15 -12
6 -57 38 -101 72 -86 64 -113 86 -450 362 -393 320 -614 493 -672 523 -32 17
-83 13 -159 -10 -135 -41 -318 -142 -396 -217 -67 -64 -110 -241 -110 -452 0
-341 123 -576 367 -702 50 -26 123 -58 163 -71 40 -13 76 -27 79 -30 3 -4 -45
-4 -108 -2 -63 3 -359 10 -659 15 -300 5 -665 13 -812 16 -236 6 -268 5 -268
-9 0 -18 106 -24 605 -32 919 -14 1403 -27 1540 -40 247 -24 341 -26 530 -16
274 15 466 58 651 146 169 81 333 225 392 344 26 54 27 61 27 229 0 149 2 172
15 172 9 0 20 -4 25 -9 15 -14 267 -141 520 -263 465 -223 798 -351 1024 -394
300 -57 701 95 906 343 70 84 140 226 158 317 l13 69 20 -58 c18 -54 23 -60
79 -92 119 -66 256 -109 436 -138 57 -9 133 -23 169 -32 57 -13 261 -15 1710
-13 905 1 1657 3 1673 4 15 1 1260 3 2767 4 l2740 2 0 20 0 20 -2192 -5
c-5315 -12 -6543 -13 -6508 -3 173 49 254 89 363 181 62 52 156 177 196 260
58 122 76 207 76 367 0 101 -6 171 -18 230 -37 173 -112 354 -169 406 -86 80
-652 425 -1058 646 -228 124 -221 122 -309 115 -140 -11 -403 -96 -553 -180
-103 -57 -194 -169 -282 -344 -20 -40 -38 -73 -40 -73 -9 0 17 75 50 147 74
164 184 279 336 355 112 56 223 91 341 109 54 8 87 18 87 25 0 32 -455 283
-715 394 -117 50 -299 113 -405 140 -72 18 -228 41 -260 39 -8 -1 -46 -5 -85
-10z m277 -49 c283 -62 656 -221 996 -424 107 -64 127 -86 79 -86 -53 0 -221
-55 -322 -105 -176 -87 -268 -184 -361 -379 -46 -98 -83 -238 -71 -269 13 -34
39 -2 104 127 130 259 186 324 348 402 192 92 456 165 540 150 30 -6 332 -166
500 -265 44 -26 136 -81 205 -121 319 -186 556 -343 595 -393 93 -123 175
-449 160 -642 -21 -287 -184 -535 -430 -656 -98 -48 -169 -66 -283 -74 l-87
-5 90 24 c260 68 493 216 589 375 80 130 118 330 97 504 -34 277 -131 425
-376 571 -228 136 -802 389 -1157 510 -126 43 -161 46 -156 14 4 -32 98 -99
302 -217 166 -96 219 -126 466 -260 192 -105 307 -187 415 -296 194 -194 290
-386 289 -580 -1 -230 -135 -350 -428 -386 -154 -19 -308 1 -592 76 -152 41
-172 42 -206 15 l-25 -19 -8 82 c-27 313 -275 603 -790 926 -174 109 -521 286
-667 341 -49 18 -56 24 -55 46 2 22 -6 27 -63 48 -303 109 -670 328 -670 401
0 24 73 156 121 217 142 181 324 311 494 352 88 21 253 19 357 -4z m-1717
-409 c164 -42 367 -129 846 -362 181 -87 333 -159 339 -159 14 0 13 -20 -2
-24 -306 -90 -490 -189 -591 -321 -139 -182 -228 -543 -214 -867 3 -71 3 -128
1 -128 -25 0 -140 74 -184 119 -153 156 -456 302 -728 352 -199 37 -291 99
-362 242 -61 123 -83 245 -77 422 8 206 38 297 143 427 115 142 312 260 507
302 92 20 239 19 322 -3z m2941 -385 c226 -77 697 -277 944 -401 312 -156 397
-227 480 -399 49 -102 70 -205 70 -341 0 -205 -49 -350 -160 -469 -134 -143
-349 -253 -567 -291 -49 -9 -89 -20 -91 -25 -14 -41 -398 62 -519 138 -31 19
-47 37 -54 62 -16 51 -8 101 16 110 13 5 83 -8 190 -36 254 -65 343 -78 504
-71 111 4 152 10 221 32 110 35 133 48 193 104 228 212 108 658 -261 964 -106
88 -173 132 -347 228 -472 259 -739 418 -704 419 8 0 47 -11 85 -24z m-1578
-188 c34 -13 62 -27 62 -31 0 -5 -8 -6 -17 -2 -40 17 -126 17 -196 0 -91 -21
-235 -90 -314 -150 -87 -65 -191 -180 -236 -261 -111 -199 -184 -566 -158
-799 5 -55 9 -100 8 -101 -1 -2 -21 5 -43 15 -27 12 -43 27 -47 42 -15 60 -18
214 -8 329 29 297 114 546 234 676 91 100 267 196 467 254 52 15 111 32 130
38 50 14 49 14 118 -10z m2 -58 c13 -9 13 -11 0 -20 -81 -50 -175 -117 -177
-126 -11 -34 103 -119 352 -264 487 -282 726 -443 912 -615 80 -74 180 -200
219 -277 86 -170 51 -410 -78 -535 -138 -134 -449 -172 -673 -83 -39 16 -215
92 -391 171 -175 78 -353 157 -394 175 -41 18 -187 84 -325 147 l-250 113 -13
50 c-16 59 -11 359 7 444 36 172 73 286 124 390 34 69 59 103 137 181 52 53
122 113 155 134 139 88 345 148 395 115z m166 -56 c221 -89 513 -243 734 -389
426 -279 646 -536 686 -798 48 -314 -115 -598 -446 -775 -150 -80 -379 -132
-513 -117 -194 22 -544 148 -987 355 -193 89 -659 327 -681 346 -8 8 -20 14
-26 14 -6 0 -9 37 -9 95 1 52 2 95 4 95 2 0 25 -9 51 -21 45 -19 50 -25 68
-78 43 -125 153 -245 218 -239 27 3 30 6 28 36 0 20 -16 56 -37 88 -55 82 -49
89 42 48 42 -20 97 -45 122 -56 25 -12 104 -48 175 -80 72 -33 272 -123 445
-200 596 -265 603 -268 788 -268 215 0 389 72 476 198 66 96 102 276 77 391
-59 274 -360 545 -1061 956 -312 183 -399 238 -433 273 l-28 29 103 67 c56 36
105 66 108 66 4 0 46 -16 96 -36z m-2106 -759 c52 -27 254 -124 449 -216 293
-138 357 -171 369 -194 10 -21 13 -52 10 -115 -3 -73 -9 -97 -39 -161 -20 -41
-57 -97 -83 -126 -47 -52 -165 -133 -223 -154 -30 -10 -33 -8 -74 36 -65 70
-233 201 -846 661 -194 146 -353 269 -353 274 0 5 24 13 53 19 107 22 227 30
432 27 l210 -3 95 -48z m140 1 c191 -52 399 -152 530 -253 90 -70 68 -64 -159
43 -62 30 -115 54 -117 54 -8 0 -330 162 -338 170 -13 13 -13 13 84 -14z
m-1087 -52 c58 -30 229 -162 542 -418 353 -290 455 -372 567 -457 65 -48 113
-91 108 -94 -24 -15 -359 -27 -630 -22 -313 5 -444 19 -620 63 -117 29 -248
94 -294 144 -64 71 -172 277 -197 373 -6 26 -16 46 -22 44 -21 -7 -29 -83 -24
-237 10 -311 57 -423 240 -568 130 -104 333 -205 522 -262 l60 -18 -45 -1
c-25 0 -88 8 -140 19 -382 80 -577 237 -660 530 -27 96 -37 295 -21 411 20
140 54 238 98 281 72 70 275 178 403 214 62 17 76 17 113 -2z m2015 -453 c26
-13 41 -30 50 -55 7 -19 29 -58 48 -85 18 -28 34 -57 34 -66 0 -14 -3 -14 -29
-1 -51 27 -131 134 -146 199 -8 32 -5 33 43 8z m-2481 -173 c82 -160 135 -218
246 -271 214 -104 598 -147 1127 -127 140 6 282 15 315 21 33 5 78 13 100 16
22 3 91 30 153 60 143 69 227 148 286 267 24 48 42 74 48 68 5 -5 12 -84 15
-175 l6 -166 -33 -68 c-39 -80 -163 -209 -255 -268 -169 -108 -387 -178 -630
-204 -78 -9 -145 -8 -300 4 -110 8 -222 20 -250 26 -305 67 -598 211 -751 371
-75 78 -100 125 -124 237 -19 86 -39 341 -27 341 3 0 36 -60 74 -132z"/>
</g>
</svg>
